<svg xmlns="http://www.w3.org/2000/svg" xmlns:xlink="http://www.w3.org/1999/xlink" width="500" zoomAndPan="magnify" viewBox="0 0 375 374.999991" height="500" preserveAspectRatio="xMidYMid meet" version="1.0"><defs><g/><clipPath id="c9c97c6844"><path d="M 40 1.84375 L 335.691406 1.84375 L 335.691406 373.09375 L 40 373.09375 Z M 40 1.84375 " clip-rule="nonzero"/></clipPath></defs><g clip-path="url(#c9c97c6844)"><path fill="#8c52ff" d="M 270.390625 310.875 C 272.90625 309.148438 275.371094 307.347656 277.777344 305.46875 C 280.183594 303.589844 282.527344 301.636719 284.8125 299.613281 C 287.097656 297.585938 289.316406 295.492188 291.46875 293.328125 C 293.621094 291.164062 295.707031 288.933594 297.722656 286.640625 C 299.734375 284.347656 301.675781 281.996094 303.542969 279.578125 C 305.414062 277.164062 307.203125 274.695312 308.917969 272.167969 C 310.628906 269.640625 312.261719 267.0625 313.816406 264.433594 C 315.367188 261.804688 316.835938 259.132812 318.222656 256.410156 C 319.609375 253.691406 320.90625 250.929688 322.121094 248.128906 C 323.335938 245.328125 324.460938 242.492188 325.5 239.621094 C 326.535156 236.75 327.480469 233.847656 328.339844 230.917969 C 329.195312 227.988281 329.957031 225.03125 330.628906 222.054688 C 331.300781 219.074219 331.878906 216.082031 332.363281 213.066406 C 332.847656 210.050781 333.238281 207.027344 333.535156 203.988281 C 333.828125 200.949219 334.03125 197.902344 334.136719 194.851562 C 334.242188 191.800781 334.253906 188.75 334.167969 185.699219 C 334.085938 182.644531 333.902344 179.601562 333.628906 176.5625 C 333.355469 173.519531 332.988281 170.492188 332.523438 167.472656 C 332.058594 164.457031 331.503906 161.457031 330.851562 158.472656 C 330.203125 155.492188 329.457031 152.53125 328.621094 149.59375 C 327.785156 146.660156 326.863281 143.75 325.84375 140.871094 C 324.828125 137.992188 323.722656 135.152344 322.53125 132.339844 C 321.335938 129.53125 320.054688 126.761719 318.6875 124.03125 C 317.320312 121.300781 315.871094 118.617188 314.335938 115.976562 C 312.800781 113.339844 311.1875 110.75 309.492188 108.210938 C 307.796875 105.671875 306.023438 103.191406 304.175781 100.761719 C 302.324219 98.335938 300.398438 95.96875 298.402344 93.660156 C 296.402344 91.351562 294.335938 89.109375 292.195312 86.929688 C 290.058594 84.75 287.851562 82.640625 285.585938 80.597656 C 283.316406 78.558594 280.984375 76.589844 278.589844 74.691406 C 276.199219 72.796875 273.75 70.976562 271.242188 69.234375 C 268.734375 67.492188 266.175781 65.828125 263.566406 64.242188 L 334.234375 64.242188 L 334.234375 1.84375 L 40.660156 1.84375 L 40.660156 64.242188 L 111.328125 64.242188 C 108.71875 65.828125 106.164062 67.492188 103.65625 69.234375 C 101.148438 70.976562 98.699219 72.796875 96.308594 74.691406 C 93.914062 76.589844 91.585938 78.558594 89.316406 80.597656 C 87.042969 82.640625 84.839844 84.75 82.703125 86.929688 C 80.5625 89.109375 78.496094 91.351562 76.496094 93.65625 C 74.5 95.964844 72.574219 98.332031 70.726562 100.761719 C 68.875 103.191406 67.101562 105.671875 65.40625 108.210938 C 63.707031 110.75 62.09375 113.339844 60.558594 115.976562 C 59.023438 118.617188 57.574219 121.300781 56.207031 124.03125 C 54.839844 126.761719 53.5625 129.53125 52.367188 132.339844 C 51.171875 135.152344 50.066406 137.992188 49.050781 140.871094 C 48.035156 143.75 47.105469 146.660156 46.273438 149.59375 C 45.4375 152.53125 44.691406 155.492188 44.042969 158.472656 C 43.390625 161.457031 42.832031 164.457031 42.371094 167.472656 C 41.90625 170.492188 41.539062 173.519531 41.265625 176.558594 C 40.988281 179.601562 40.8125 182.644531 40.726562 185.699219 C 40.640625 188.75 40.652344 191.800781 40.757812 194.851562 C 40.863281 197.902344 41.066406 200.949219 41.359375 203.988281 C 41.65625 207.027344 42.046875 210.050781 42.53125 213.066406 C 43.015625 216.082031 43.59375 219.074219 44.265625 222.054688 C 44.9375 225.03125 45.699219 227.988281 46.558594 230.917969 C 47.414062 233.847656 48.359375 236.75 49.398438 239.621094 C 50.433594 242.492188 51.558594 245.328125 52.773438 248.128906 C 53.988281 250.929688 55.285156 253.691406 56.671875 256.410156 C 58.058594 259.132812 59.527344 261.804688 61.078125 264.433594 C 62.632812 267.0625 64.265625 269.640625 65.980469 272.167969 C 67.695312 274.695312 69.484375 277.164062 71.351562 279.578125 C 73.21875 281.996094 75.160156 284.347656 77.175781 286.640625 C 79.1875 288.933594 81.273438 291.164062 83.429688 293.328125 C 85.582031 295.492188 87.800781 297.585938 90.085938 299.613281 C 92.367188 301.636719 94.714844 303.589844 97.121094 305.46875 C 99.527344 307.347656 101.988281 309.148438 104.507812 310.875 L 41.816406 310.875 L 41.816406 373.273438 L 335.390625 373.273438 L 335.390625 310.875 Z M 187.449219 273.480469 C 186.078125 273.480469 184.707031 273.445312 183.339844 273.378906 C 181.972656 273.308594 180.605469 273.207031 179.242188 273.074219 C 177.878906 272.941406 176.519531 272.773438 175.164062 272.570312 C 173.808594 272.371094 172.457031 272.136719 171.113281 271.867188 C 169.769531 271.601562 168.433594 271.300781 167.105469 270.96875 C 165.777344 270.636719 164.457031 270.269531 163.144531 269.871094 C 161.832031 269.472656 160.53125 269.042969 159.242188 268.582031 C 157.953125 268.121094 156.675781 267.628906 155.410156 267.105469 C 154.144531 266.582031 152.890625 266.027344 151.652344 265.4375 C 150.414062 264.855469 149.191406 264.238281 147.984375 263.59375 C 146.777344 262.945312 145.585938 262.273438 144.410156 261.566406 C 143.234375 260.863281 142.074219 260.128906 140.9375 259.367188 C 139.796875 258.605469 138.679688 257.820312 137.578125 257.003906 C 136.476562 256.1875 135.398438 255.347656 134.339844 254.476562 C 133.28125 253.605469 132.242188 252.710938 131.226562 251.792969 C 130.210938 250.871094 129.21875 249.925781 128.25 248.957031 C 127.285156 247.988281 126.339844 247 125.417969 245.984375 C 124.496094 244.96875 123.601562 243.929688 122.734375 242.871094 C 121.863281 241.8125 121.019531 240.734375 120.203125 239.632812 C 119.390625 238.53125 118.601562 237.410156 117.839844 236.273438 C 117.078125 235.132812 116.34375 233.976562 115.640625 232.800781 C 114.9375 231.625 114.261719 230.433594 113.617188 229.226562 C 112.972656 228.019531 112.355469 226.792969 111.769531 225.554688 C 111.183594 224.316406 110.628906 223.0625 110.101562 221.796875 C 109.578125 220.53125 109.085938 219.253906 108.625 217.964844 C 108.164062 216.675781 107.734375 215.375 107.335938 214.0625 C 106.9375 212.753906 106.574219 211.433594 106.238281 210.105469 C 105.90625 208.773438 105.605469 207.4375 105.339844 206.09375 C 105.074219 204.75 104.839844 203.402344 104.636719 202.046875 C 104.4375 200.691406 104.269531 199.332031 104.136719 197.96875 C 104 196.605469 103.902344 195.238281 103.835938 193.871094 C 103.765625 192.503906 103.734375 191.132812 103.734375 189.765625 C 103.734375 188.394531 103.765625 187.023438 103.835938 185.65625 C 103.902344 184.289062 104.003906 182.921875 104.136719 181.558594 C 104.269531 180.195312 104.4375 178.835938 104.636719 177.480469 C 104.839844 176.125 105.074219 174.773438 105.339844 173.429688 C 105.609375 172.089844 105.90625 170.753906 106.242188 169.421875 C 106.574219 168.09375 106.9375 166.773438 107.335938 165.464844 C 107.734375 164.152344 108.164062 162.851562 108.625 161.5625 C 109.085938 160.269531 109.582031 158.992188 110.105469 157.726562 C 110.628906 156.460938 111.183594 155.210938 111.769531 153.972656 C 112.355469 152.734375 112.972656 151.511719 113.617188 150.300781 C 114.265625 149.09375 114.9375 147.902344 115.640625 146.726562 C 116.347656 145.550781 117.078125 144.394531 117.839844 143.253906 C 118.601562 142.117188 119.390625 140.996094 120.207031 139.894531 C 121.023438 138.796875 121.867188 137.714844 122.734375 136.65625 C 123.605469 135.597656 124.5 134.5625 125.417969 133.546875 C 126.339844 132.53125 127.285156 131.539062 128.253906 130.570312 C 129.21875 129.601562 130.210938 128.65625 131.226562 127.734375 C 132.242188 126.816406 133.28125 125.921875 134.339844 125.050781 C 135.398438 124.183594 136.476562 123.339844 137.578125 122.523438 C 138.679688 121.707031 139.800781 120.917969 140.9375 120.15625 C 142.078125 119.394531 143.234375 118.664062 144.410156 117.957031 C 145.585938 117.253906 146.777344 116.578125 147.984375 115.933594 C 149.195312 115.289062 150.417969 114.671875 151.65625 114.085938 C 152.890625 113.5 154.144531 112.945312 155.410156 112.421875 C 156.675781 111.898438 157.953125 111.402344 159.242188 110.941406 C 160.535156 110.480469 161.835938 110.054688 163.148438 109.65625 C 164.457031 109.257812 165.777344 108.890625 167.105469 108.558594 C 168.433594 108.226562 169.769531 107.925781 171.113281 107.660156 C 172.457031 107.390625 173.808594 107.15625 175.164062 106.957031 C 176.519531 106.753906 177.878906 106.585938 179.242188 106.453125 C 180.605469 106.320312 181.972656 106.21875 183.339844 106.152344 C 184.707031 106.085938 186.078125 106.050781 187.445312 106.050781 C 188.816406 106.050781 190.1875 106.085938 191.554688 106.152344 C 192.921875 106.21875 194.289062 106.320312 195.652344 106.457031 C 197.015625 106.589844 198.375 106.757812 199.726562 106.957031 C 201.082031 107.15625 202.433594 107.390625 203.777344 107.660156 C 205.117188 107.925781 206.457031 108.226562 207.785156 108.558594 C 209.113281 108.894531 210.433594 109.257812 211.746094 109.65625 C 213.054688 110.054688 214.355469 110.484375 215.644531 110.941406 C 216.9375 111.40625 218.214844 111.898438 219.480469 112.421875 C 220.746094 112.945312 222 113.503906 223.238281 114.085938 C 224.476562 114.675781 225.699219 115.289062 226.910156 115.9375 C 228.117188 116.582031 229.308594 117.257812 230.484375 117.960938 C 231.660156 118.664062 232.816406 119.398438 233.953125 120.15625 C 235.09375 120.917969 236.210938 121.707031 237.3125 122.523438 C 238.414062 123.339844 239.496094 124.183594 240.554688 125.054688 C 241.613281 125.921875 242.648438 126.816406 243.664062 127.738281 C 244.679688 128.65625 245.671875 129.601562 246.640625 130.570312 C 247.609375 131.539062 248.554688 132.53125 249.476562 133.546875 C 250.394531 134.5625 251.289062 135.597656 252.160156 136.660156 C 253.027344 137.71875 253.871094 138.796875 254.683594 139.894531 C 255.5 140.996094 256.289062 142.117188 257.050781 143.257812 C 257.8125 144.394531 258.542969 145.554688 259.25 146.726562 C 259.953125 147.902344 260.628906 149.09375 261.277344 150.304688 C 261.921875 151.511719 262.535156 152.734375 263.121094 153.972656 C 263.707031 155.210938 264.265625 156.460938 264.789062 157.726562 C 265.3125 158.992188 265.804688 160.269531 266.265625 161.5625 C 266.726562 162.851562 267.15625 164.152344 267.554688 165.464844 C 267.953125 166.773438 268.316406 168.09375 268.648438 169.421875 C 268.984375 170.753906 269.285156 172.089844 269.550781 173.429688 C 269.816406 174.773438 270.050781 176.125 270.253906 177.480469 C 270.453125 178.835938 270.621094 180.195312 270.757812 181.558594 C 270.890625 182.921875 270.992188 184.289062 271.0625 185.65625 C 271.128906 187.027344 271.160156 188.394531 271.160156 189.765625 C 271.160156 191.132812 271.128906 192.503906 271.058594 193.871094 C 270.992188 195.242188 270.894531 196.605469 270.757812 197.972656 C 270.625 199.335938 270.457031 200.691406 270.257812 202.046875 C 270.054688 203.402344 269.824219 204.753906 269.558594 206.097656 C 269.289062 207.441406 268.988281 208.777344 268.65625 210.109375 C 268.324219 211.4375 267.960938 212.757812 267.5625 214.066406 C 267.164062 215.378906 266.734375 216.679688 266.273438 217.96875 C 265.8125 219.257812 265.320312 220.539062 264.796875 221.804688 C 264.273438 223.070312 263.714844 224.320312 263.128906 225.5625 C 262.542969 226.800781 261.929688 228.023438 261.285156 229.234375 C 260.636719 230.441406 259.964844 231.632812 259.257812 232.808594 C 258.554688 233.984375 257.820312 235.140625 257.0625 236.28125 C 256.300781 237.417969 255.511719 238.539062 254.695312 239.640625 C 253.878906 240.738281 253.035156 241.820312 252.167969 242.878906 C 251.296875 243.9375 250.402344 244.976562 249.484375 245.992188 C 248.5625 247.007812 247.621094 248 246.648438 248.96875 C 245.679688 249.9375 244.6875 250.882812 243.675781 251.800781 C 242.65625 252.71875 241.621094 253.613281 240.5625 254.484375 C 239.5 255.351562 238.421875 256.195312 237.320312 257.011719 C 236.21875 257.828125 235.101562 258.617188 233.960938 259.378906 C 232.824219 260.140625 231.664062 260.871094 230.488281 261.578125 C 229.316406 262.28125 228.125 262.957031 226.914062 263.601562 C 225.707031 264.246094 224.484375 264.863281 223.242188 265.449219 C 222.003906 266.035156 220.753906 266.589844 219.488281 267.113281 C 218.21875 267.636719 216.941406 268.128906 215.652344 268.589844 C 214.359375 269.050781 213.058594 269.480469 211.75 269.878906 C 210.4375 270.277344 209.121094 270.640625 207.789062 270.972656 C 206.460938 271.308594 205.125 271.605469 203.78125 271.875 C 202.4375 272.140625 201.085938 272.375 199.730469 272.574219 C 198.375 272.773438 197.015625 272.941406 195.652344 273.078125 C 194.289062 273.210938 192.921875 273.3125 191.554688 273.378906 C 190.1875 273.445312 188.816406 273.480469 187.449219 273.480469 Z M 187.449219 273.480469 " fill-opacity="1" fill-rule="nonzero"/></g><g fill="#7367f0" fill-opacity="1"><g transform="translate(179.92218, 188.691535)"><g><path d="M 2.109375 0.078125 C 1.804688 0.078125 1.566406 -0.00390625 1.390625 -0.171875 C 1.222656 -0.335938 1.140625 -0.5625 1.140625 -0.84375 C 1.140625 -1.113281 1.222656 -1.332031 1.390625 -1.5 C 1.566406 -1.675781 1.804688 -1.765625 2.109375 -1.765625 C 2.410156 -1.765625 2.644531 -1.679688 2.8125 -1.515625 C 2.988281 -1.347656 3.078125 -1.128906 3.078125 -0.859375 C 3.078125 -0.578125 2.988281 -0.347656 2.8125 -0.171875 C 2.632812 -0.00390625 2.398438 0.078125 2.109375 0.078125 Z M 2.109375 0.078125 "/></g></g></g></svg>