<svg xmlns="http://www.w3.org/2000/svg" xmlns:xlink="http://www.w3.org/1999/xlink" width="500" zoomAndPan="magnify" viewBox="0 0 375 374.999991" height="500" preserveAspectRatio="xMidYMid meet" version="1.0"><defs><g/><clipPath id="ee03895291"><path d="M 144.570312 129.097656 L 176 129.097656 L 176 168.097656 L 144.570312 168.097656 Z M 144.570312 129.097656 " clip-rule="nonzero"/></clipPath></defs><g fill="#3b3939" fill-opacity="1"><g transform="translate(12.121034, 167.882892)"><g><path d="M 30.03125 -22.9375 C 32.488281 -20.25 33.71875 -16.960938 33.71875 -13.078125 C 33.71875 -9.191406 32.488281 -5.910156 30.03125 -3.234375 C 27.582031 -0.566406 24.46875 0.765625 20.6875 0.765625 C 17.21875 0.765625 14.359375 -0.476562 12.109375 -2.96875 L 12 -2.96875 L 12 0 L 3.0625 0 L 3.0625 -43.9375 L 12.109375 -43.9375 L 12.109375 -23.703125 C 14.359375 -25.890625 17.21875 -26.984375 20.6875 -26.984375 C 24.46875 -26.984375 27.582031 -25.632812 30.03125 -22.9375 Z M 22.421875 -8.65625 C 23.546875 -9.800781 24.109375 -11.273438 24.109375 -13.078125 C 24.109375 -14.878906 23.519531 -16.359375 22.34375 -17.515625 C 21.175781 -18.679688 19.722656 -19.265625 17.984375 -19.265625 C 16.285156 -19.265625 14.847656 -18.679688 13.671875 -17.515625 C 12.492188 -16.359375 11.90625 -14.878906 11.90625 -13.078125 C 11.90625 -11.304688 12.472656 -9.84375 13.609375 -8.6875 C 14.753906 -7.53125 16.210938 -6.953125 17.984375 -6.953125 C 19.828125 -6.953125 21.304688 -7.519531 22.421875 -8.65625 Z M 22.421875 -8.65625 "/></g></g></g><g fill="#3b3939" fill-opacity="1"><g transform="translate(45.893525, 167.882892)"><g><path d="M 11.59375 -26.21875 L 11.59375 -13.75 C 11.59375 -11.15625 11.984375 -9.3125 12.765625 -8.21875 C 13.554688 -7.132812 14.882812 -6.59375 16.75 -6.59375 C 18.625 -6.59375 19.953125 -7.132812 20.734375 -8.21875 C 21.523438 -9.3125 21.921875 -11.15625 21.921875 -13.75 L 21.921875 -26.21875 L 30.96875 -26.21875 L 30.96875 -11.546875 C 30.96875 -7.179688 29.832031 -4.035156 27.5625 -2.109375 C 25.300781 -0.191406 21.695312 0.765625 16.75 0.765625 C 11.8125 0.765625 8.210938 -0.191406 5.953125 -2.109375 C 3.691406 -4.035156 2.5625 -7.179688 2.5625 -11.546875 L 2.5625 -26.21875 Z M 11.59375 -26.21875 "/></g></g></g><g fill="#3b3939" fill-opacity="1"><g transform="translate(78.286498, 167.882892)"><g><path d="M 28.40625 -26.21875 L 15.4375 -6.890625 L 27.390625 -6.890625 L 27.390625 0 L 0.25 0 L 13.234375 -19.3125 L 2.40625 -19.3125 L 2.40625 -26.21875 Z M 28.40625 -26.21875 "/></g></g></g><g fill="#3b3939" fill-opacity="1"><g transform="translate(105.825587, 167.882892)"><g><path d="M 28.40625 -26.21875 L 15.4375 -6.890625 L 27.390625 -6.890625 L 27.390625 0 L 0.25 0 L 13.234375 -19.3125 L 2.40625 -19.3125 L 2.40625 -26.21875 Z M 28.40625 -26.21875 "/></g></g></g><g fill="#3b3939" fill-opacity="1"><g transform="translate(133.366365, 167.882892)"><g/></g></g><g fill="#000000" fill-opacity="1"><g transform="translate(146.20148, 167.882892)"><g/></g></g><g fill="#000000" fill-opacity="1"><g transform="translate(159.025671, 167.882892)"><g/></g></g><g fill="#000000" fill-opacity="1"><g transform="translate(171.849863, 167.882892)"><g/></g></g><g fill="#3b3939" fill-opacity="1"><g transform="translate(184.68328, 167.882892)"><g><path d="M 3.0625 0 L 3.0625 -43.9375 L 12.109375 -43.9375 L 12.109375 0 Z M 3.0625 0 "/></g></g></g><g fill="#3b3939" fill-opacity="1"><g transform="translate(198.733718, 167.882892)"><g><path d="M 4.84375 -3.234375 C 2.394531 -5.910156 1.171875 -9.191406 1.171875 -13.078125 C 1.171875 -16.960938 2.394531 -20.25 4.84375 -22.9375 C 7.300781 -25.632812 10.421875 -26.984375 14.203125 -26.984375 C 17.679688 -26.984375 20.539062 -25.890625 22.78125 -23.703125 L 22.78125 -26.21875 L 31.828125 -26.21875 L 31.828125 0 L 22.890625 0 L 22.890625 -2.96875 L 22.78125 -2.96875 C 20.539062 -0.476562 17.679688 0.765625 14.203125 0.765625 C 10.421875 0.765625 7.300781 -0.566406 4.84375 -3.234375 Z M 12.546875 -17.515625 C 11.367188 -16.359375 10.78125 -14.878906 10.78125 -13.078125 C 10.78125 -11.273438 11.34375 -9.800781 12.46875 -8.65625 C 13.59375 -7.519531 15.070312 -6.953125 16.90625 -6.953125 C 18.675781 -6.953125 20.132812 -7.53125 21.28125 -8.6875 C 22.425781 -9.84375 23 -11.304688 23 -13.078125 C 23 -14.878906 22.410156 -16.359375 21.234375 -17.515625 C 20.054688 -18.679688 18.613281 -19.265625 16.90625 -19.265625 C 15.175781 -19.265625 13.722656 -18.679688 12.546875 -17.515625 Z M 12.546875 -17.515625 "/></g></g></g><g fill="#3b3939" fill-opacity="1"><g transform="translate(232.506209, 167.882892)"><g><path d="M 3.0625 0 L 3.0625 -26.21875 L 12.109375 -26.21875 L 12.109375 -23.453125 L 12.21875 -23.453125 C 14.5625 -25.804688 17.0625 -26.984375 19.71875 -26.984375 C 21.007812 -26.984375 22.296875 -26.8125 23.578125 -26.46875 C 24.859375 -26.125 26.082031 -25.59375 27.25 -24.875 C 28.425781 -24.164062 29.378906 -23.15625 30.109375 -21.84375 C 30.847656 -20.53125 31.21875 -19.003906 31.21875 -17.265625 L 31.21875 0 L 22.171875 0 L 22.171875 -14.8125 C 22.171875 -16.175781 21.734375 -17.367188 20.859375 -18.390625 C 19.992188 -19.410156 18.863281 -19.921875 17.46875 -19.921875 C 16.113281 -19.921875 14.878906 -19.394531 13.765625 -18.34375 C 12.660156 -17.289062 12.109375 -16.113281 12.109375 -14.8125 L 12.109375 0 Z M 3.0625 0 "/></g></g></g><g fill="#3b3939" fill-opacity="1"><g transform="translate(265.154646, 167.882892)"><g><path d="M 4.59375 -26.21875 L 4.59375 -35.96875 L 13.640625 -35.96875 L 13.640625 -26.21875 L 19.15625 -26.21875 L 19.15625 -19.3125 L 13.640625 -19.3125 L 13.640625 -10.984375 C 13.640625 -8.566406 14.320312 -7.359375 15.6875 -7.359375 C 16.03125 -7.359375 16.390625 -7.425781 16.765625 -7.5625 C 17.140625 -7.695312 17.425781 -7.832031 17.625 -7.96875 L 17.9375 -8.171875 L 20.1875 -0.875 C 18.238281 0.21875 16.023438 0.765625 13.546875 0.765625 C 11.835938 0.765625 10.367188 0.46875 9.140625 -0.125 C 7.921875 -0.71875 6.992188 -1.515625 6.359375 -2.515625 C 5.734375 -3.523438 5.28125 -4.582031 5 -5.6875 C 4.726562 -6.800781 4.59375 -7.988281 4.59375 -9.25 L 4.59375 -19.3125 L 0.8125 -19.3125 L 0.8125 -26.21875 Z M 4.59375 -26.21875 "/></g></g></g><g fill="#3b3939" fill-opacity="1"><g transform="translate(284.212239, 167.882892)"><g><path d="M 29.578125 -11.859375 L 10.578125 -11.859375 C 10.578125 -10.015625 11.171875 -8.648438 12.359375 -7.765625 C 13.554688 -6.878906 14.851562 -6.4375 16.25 -6.4375 C 17.707031 -6.4375 18.863281 -6.628906 19.71875 -7.015625 C 20.570312 -7.410156 21.546875 -8.1875 22.640625 -9.34375 L 29.171875 -6.078125 C 26.453125 -1.515625 21.921875 0.765625 15.578125 0.765625 C 11.628906 0.765625 8.238281 -0.585938 5.40625 -3.296875 C 2.582031 -6.003906 1.171875 -9.265625 1.171875 -13.078125 C 1.171875 -16.890625 2.582031 -20.160156 5.40625 -22.890625 C 8.238281 -25.617188 11.628906 -26.984375 15.578125 -26.984375 C 19.734375 -26.984375 23.113281 -25.78125 25.71875 -23.375 C 28.332031 -20.96875 29.640625 -17.535156 29.640625 -13.078125 C 29.640625 -12.460938 29.617188 -12.054688 29.578125 -11.859375 Z M 10.828125 -16.859375 L 20.796875 -16.859375 C 20.585938 -18.222656 20.050781 -19.269531 19.1875 -20 C 18.320312 -20.738281 17.207031 -21.109375 15.84375 -21.109375 C 14.34375 -21.109375 13.148438 -20.710938 12.265625 -19.921875 C 11.378906 -19.140625 10.898438 -18.117188 10.828125 -16.859375 Z M 10.828125 -16.859375 "/></g></g></g><g fill="#3b3939" fill-opacity="1"><g transform="translate(313.897248, 167.882892)"><g><path d="M 3.0625 0 L 3.0625 -26.21875 L 12.109375 -26.21875 L 12.109375 -22.4375 L 12.21875 -22.4375 C 12.28125 -22.570312 12.390625 -22.738281 12.546875 -22.9375 C 12.703125 -23.144531 13.035156 -23.503906 13.546875 -24.015625 C 14.054688 -24.523438 14.597656 -24.984375 15.171875 -25.390625 C 15.753906 -25.796875 16.503906 -26.160156 17.421875 -26.484375 C 18.335938 -26.816406 19.273438 -26.984375 20.234375 -26.984375 C 21.222656 -26.984375 22.191406 -26.84375 23.140625 -26.5625 C 24.097656 -26.289062 24.796875 -26.019531 25.234375 -25.75 L 25.953125 -25.34375 L 22.171875 -17.671875 C 21.046875 -18.628906 19.476562 -19.109375 17.46875 -19.109375 C 16.382812 -19.109375 15.445312 -18.867188 14.65625 -18.390625 C 13.875 -17.910156 13.320312 -17.332031 13 -16.65625 C 12.675781 -15.976562 12.445312 -15.398438 12.3125 -14.921875 C 12.175781 -14.441406 12.109375 -14.066406 12.109375 -13.796875 L 12.109375 0 Z M 3.0625 0 "/></g></g></g><g fill="#3b3939" fill-opacity="1"><g transform="translate(338.217467, 167.882892)"><g><path d="M 3.0625 0 L 3.0625 -26.21875 L 12.109375 -26.21875 L 12.109375 -23.453125 L 12.21875 -23.453125 C 14.5625 -25.804688 17.0625 -26.984375 19.71875 -26.984375 C 21.007812 -26.984375 22.296875 -26.8125 23.578125 -26.46875 C 24.859375 -26.125 26.082031 -25.59375 27.25 -24.875 C 28.425781 -24.164062 29.378906 -23.15625 30.109375 -21.84375 C 30.847656 -20.53125 31.21875 -19.003906 31.21875 -17.265625 L 31.21875 0 L 22.171875 0 L 22.171875 -14.8125 C 22.171875 -16.175781 21.734375 -17.367188 20.859375 -18.390625 C 19.992188 -19.410156 18.863281 -19.921875 17.46875 -19.921875 C 16.113281 -19.921875 14.878906 -19.394531 13.765625 -18.34375 C 12.660156 -17.289062 12.109375 -16.113281 12.109375 -14.8125 L 12.109375 0 Z M 3.0625 0 "/></g></g></g><g clip-path="url(#ee03895291)"><path fill="#8c52ff" d="M 168.9375 161.703125 C 169.46875 161.335938 169.976562 160.941406 170.457031 160.511719 C 170.941406 160.085938 171.394531 159.628906 171.820312 159.144531 C 172.246094 158.660156 172.640625 158.152344 173 157.617188 C 173.363281 157.085938 173.691406 156.53125 173.984375 155.957031 C 174.277344 155.382812 174.53125 154.789062 174.75 154.183594 C 174.96875 153.578125 175.148438 152.960938 175.292969 152.332031 C 175.433594 151.703125 175.535156 151.066406 175.597656 150.425781 C 175.660156 149.78125 175.683594 149.140625 175.664062 148.496094 C 175.648438 147.851562 175.589844 147.210938 175.492188 146.570312 C 175.394531 145.933594 175.257812 145.304688 175.078125 144.6875 C 174.902344 144.066406 174.6875 143.457031 174.4375 142.867188 C 174.183594 142.273438 173.898438 141.695312 173.574219 141.140625 C 173.25 140.582031 172.890625 140.046875 172.5 139.535156 C 172.109375 139.019531 171.6875 138.535156 171.238281 138.074219 C 170.785156 137.613281 170.304688 137.183594 169.800781 136.78125 C 169.296875 136.382812 168.765625 136.015625 168.214844 135.679688 L 175.671875 135.679688 L 175.671875 129.097656 L 144.699219 129.097656 L 144.699219 135.679688 L 152.152344 135.679688 C 151.601562 136.015625 151.074219 136.382812 150.570312 136.78125 C 150.0625 137.183594 149.585938 137.613281 149.132812 138.074219 C 148.683594 138.535156 148.261719 139.019531 147.871094 139.535156 C 147.480469 140.046875 147.121094 140.582031 146.796875 141.140625 C 146.472656 141.695312 146.183594 142.273438 145.933594 142.867188 C 145.679688 143.457031 145.464844 144.066406 145.289062 144.6875 C 145.113281 145.304688 144.976562 145.933594 144.878906 146.570312 C 144.78125 147.210938 144.722656 147.851562 144.703125 148.496094 C 144.6875 149.140625 144.710938 149.78125 144.773438 150.425781 C 144.835938 151.066406 144.9375 151.703125 145.078125 152.332031 C 145.21875 152.960938 145.402344 153.578125 145.621094 154.183594 C 145.839844 154.789062 146.09375 155.382812 146.386719 155.957031 C 146.679688 156.53125 147.007812 157.085938 147.371094 157.617188 C 147.730469 158.152344 148.125 158.660156 148.550781 159.144531 C 148.976562 159.628906 149.429688 160.085938 149.914062 160.511719 C 150.394531 160.941406 150.902344 161.335938 151.433594 161.703125 L 144.820312 161.703125 L 144.820312 168.285156 L 175.792969 168.285156 L 175.792969 161.703125 Z M 160.183594 157.757812 C 159.605469 157.757812 159.03125 157.699219 158.460938 157.585938 C 157.894531 157.472656 157.339844 157.304688 156.804688 157.082031 C 156.269531 156.863281 155.761719 156.589844 155.277344 156.265625 C 154.796875 155.945312 154.347656 155.578125 153.9375 155.167969 C 153.527344 154.757812 153.164062 154.3125 152.839844 153.832031 C 152.519531 153.347656 152.246094 152.839844 152.023438 152.304688 C 151.800781 151.769531 151.636719 151.214844 151.523438 150.648438 C 151.410156 150.078125 151.351562 149.503906 151.351562 148.921875 C 151.351562 148.34375 151.410156 147.769531 151.523438 147.199219 C 151.636719 146.632812 151.800781 146.078125 152.023438 145.542969 C 152.246094 145.007812 152.519531 144.5 152.839844 144.015625 C 153.164062 143.535156 153.527344 143.089844 153.9375 142.679688 C 154.347656 142.269531 154.796875 141.902344 155.277344 141.578125 C 155.761719 141.257812 156.269531 140.984375 156.804688 140.761719 C 157.339844 140.542969 157.894531 140.375 158.460938 140.261719 C 159.03125 140.148438 159.605469 140.089844 160.183594 140.089844 C 160.765625 140.089844 161.339844 140.148438 161.90625 140.261719 C 162.476562 140.375 163.027344 140.542969 163.566406 140.761719 C 164.101562 140.984375 164.609375 141.257812 165.089844 141.578125 C 165.574219 141.902344 166.019531 142.269531 166.429688 142.679688 C 166.839844 143.089844 167.207031 143.535156 167.527344 144.015625 C 167.851562 144.5 168.121094 145.007812 168.34375 145.542969 C 168.566406 146.078125 168.734375 146.632812 168.847656 147.199219 C 168.960938 147.769531 169.015625 148.34375 169.015625 148.925781 C 169.015625 149.503906 168.960938 150.078125 168.847656 150.648438 C 168.734375 151.214844 168.566406 151.769531 168.347656 152.304688 C 168.125 152.839844 167.851562 153.347656 167.53125 153.832031 C 167.207031 154.3125 166.839844 154.761719 166.429688 155.171875 C 166.019531 155.582031 165.574219 155.945312 165.09375 156.269531 C 164.609375 156.589844 164.101562 156.863281 163.566406 157.085938 C 163.03125 157.304688 162.476562 157.472656 161.910156 157.585938 C 161.339844 157.699219 160.765625 157.757812 160.183594 157.757812 Z M 160.183594 157.757812 " fill-opacity="1" fill-rule="nonzero"/></g></svg>